<svg width="10" height="21" viewBox="0 0 10 21" fill="none" xmlns="http://www.w3.org/2000/svg">
<g opacity="0.5">
<path d="M5 0L0 5.88441H3.125V11.401H6.875V5.88441H10L5 0Z" fill="#06210A"/>
<path d="M5 20.1807C4.25 20.1807 3.63637 19.3145 3.63637 18.2318V15.3547C3.63637 14.2719 4.25 13.4057 5 13.4057C5.75 13.4057 6.36364 14.2719 6.36364 15.3547V18.2318C6.36364 19.3145 5.75 20.1807 5 20.1807ZM5 14.4266C4.61364 14.4266 4.31819 14.8288 4.31819 15.3547V18.2318C4.31819 18.7267 4.61364 19.1598 5 19.1598C5.38637 19.1598 5.68182 18.7577 5.68182 18.2318V15.3547C5.68182 14.8288 5.38637 14.4266 5 14.4266" fill="#06210A"/>
<path d="M2.72727 13.3891H0V14.3152H1.02273V20.1807H1.70455V14.3152H2.72727V13.3891Z" fill="#06210A"/>
<path d="M8.63637 13.3891H7.27274V20.1807H7.95455V17.3097H8.63637C9.38637 17.3097 10 16.4453 10 15.3648C10 14.2535 9.38637 13.3891 8.63637 13.3891V13.3891ZM8.63637 16.2601H7.95455V14.4387H8.63637C9.02274 14.4387 9.31819 14.84 9.31819 15.3648C9.31819 15.8896 9.02274 16.2601 8.63637 16.2601Z" fill="#06210A"/>
</g>
</svg>
