<svg width="10" height="22" viewBox="0 0 10 22" fill="none" xmlns="http://www.w3.org/2000/svg">
<path d="M5 0.93281L0 6.81722H3.125V12.3339H6.875V6.81722H10L5 0.93281Z" fill="#06210A"/>
<path d="M5 21.1135C4.25 21.1135 3.63637 20.2473 3.63637 19.1646V16.2875C3.63637 15.2048 4.25 14.3385 5 14.3385C5.75 14.3385 6.36364 15.2048 6.36364 16.2875V19.1646C6.36364 20.2473 5.75 21.1135 5 21.1135ZM5 15.3594C4.61364 15.3594 4.31819 15.7616 4.31819 16.2875V19.1646C4.31819 19.6596 4.61364 20.0927 5 20.0927C5.38637 20.0927 5.68182 19.6905 5.68182 19.1646V16.2875C5.68182 15.7616 5.38637 15.3594 5 15.3594" fill="#06210A"/>
<path d="M2.72727 14.3219H0V15.248H1.02273V21.1135H1.70455V15.248H2.72727V14.3219Z" fill="#06210A"/>
<path d="M8.63637 14.3219H7.27274V21.1135H7.95455V18.2425H8.63637C9.38637 18.2425 10 17.3781 10 16.2976C10 15.1863 9.38637 14.3219 8.63637 14.3219V14.3219ZM8.63637 17.1929H7.95455V15.3715H8.63637C9.02274 15.3715 9.31819 15.7728 9.31819 16.2976C9.31819 16.8224 9.02274 17.1929 8.63637 17.1929Z" fill="#06210A"/>
</svg>
