<svg width="32" height="32" viewBox="0 0 32 32" fill="none" xmlns="http://www.w3.org/2000/svg">
<path d="M7.51676 7.51676C7.84775 7.18588 8.2966 7 8.76461 7C9.23262 7 9.68147 7.18588 10.0125 7.51676L16.2534 13.7578L22.4944 7.51676C22.8273 7.19526 23.2731 7.01736 23.7359 7.02138C24.1987 7.0254 24.6414 7.21102 24.9686 7.53826C25.2959 7.86551 25.4815 8.30819 25.4855 8.77096C25.4895 9.23373 25.3116 9.67957 24.9901 10.0125L18.7491 16.2534L24.9901 22.4944C25.3116 22.8273 25.4895 23.2732 25.4855 23.7359C25.4815 24.1987 25.2959 24.6414 24.9686 24.9686C24.6414 25.2959 24.1987 25.4815 23.7359 25.4855C23.2731 25.4895 22.8273 25.3116 22.4944 24.9901L16.2534 18.7491L10.0125 24.9901C9.67957 25.3116 9.23373 25.4895 8.77096 25.4855C8.30819 25.4815 7.86551 25.2959 7.53826 24.9686C7.21102 24.6414 7.0254 24.1987 7.02138 23.7359C7.01736 23.2732 7.19526 22.8273 7.51676 22.4944L13.7578 16.2534L7.51676 10.0125C7.18588 9.68147 7 9.23262 7 8.76461C7 8.2966 7.18588 7.84775 7.51676 7.51676Z" fill="#22FF1F"/>
</svg>
