<svg width="32" height="32" viewBox="0 0 32 32" fill="none" xmlns="http://www.w3.org/2000/svg">
<path d="M25.0677 9.16015L22.4828 6.57766C22.3004 6.39452 22.0837 6.2492 21.845 6.15007C21.6064 6.05094 21.3504 5.99994 21.092 6C20.5653 6 20.0702 6.20631 19.6988 6.57766L16.9173 9.35917C16.7342 9.54151 16.5889 9.75825 16.4897 9.99692C16.3906 10.2356 16.3396 10.4915 16.3397 10.7499C16.3397 11.2766 16.546 11.7718 16.9173 12.1431L18.9513 14.1771C18.4752 15.2265 17.8132 16.1811 16.9974 16.995C16.1836 17.8128 15.2291 18.4771 14.1795 18.9561L12.1455 16.9222C11.9632 16.739 11.7465 16.5937 11.5078 16.4946C11.2691 16.3954 11.0132 16.3444 10.7548 16.3445C10.2281 16.3445 9.73296 16.5508 9.3616 16.9222L6.57766 19.7012C6.39429 19.8839 6.24886 20.1011 6.14972 20.3402C6.05058 20.5793 5.9997 20.8356 6 21.0944C6 21.6211 6.20631 22.1163 6.57766 22.4876L9.15772 25.0677C9.74995 25.6623 10.5679 25.9997 11.4077 25.9997C11.5849 25.9997 11.7548 25.9851 11.9222 25.956C15.194 25.4172 18.4391 23.6769 21.058 21.0605C23.6745 18.4464 25.4123 15.2037 25.9584 11.9222C26.1235 10.9198 25.791 9.88829 25.0677 9.16015Z" fill="#F3F3F3"/>
</svg>
