<svg width="100" height="25" viewBox="0 0 100 25" fill="none" xmlns="http://www.w3.org/2000/svg">
<path fill-rule="evenodd" clip-rule="evenodd" d="M24.1109 14.2324L19.4985 6.97909L19.1075 7.1816L23.6147 14.2324H24.1109ZM22.9156 14.2324L18.5248 7.34497L18.1336 7.54717L22.3968 14.2324H22.9156Z" fill="url(#paint0_linear_15_5)"/>
<path fill-rule="evenodd" clip-rule="evenodd" d="M24.1109 14.2324L19.4985 6.97909L19.1075 7.1816L23.6147 14.2324H24.1109ZM22.9156 14.2324L18.5248 7.34497L18.1336 7.54717L22.3968 14.2324H22.9156Z" fill="url(#paint1_linear_15_5)"/>
<path d="M24.6973 14.2324L19.9909 6.81568L20.1866 6.71461C20.3431 6.68975 20.5376 6.88057 20.6152 6.97909L25.2386 14.2324H24.6973Z" fill="url(#paint2_linear_15_5)"/>
<path d="M20.5854 8.48866C21.1021 7.83187 20.9129 6.93136 20.1779 6.54908L19.9362 6.42336C19.3037 6.09436 18.4831 6.2683 18.0294 6.82758L10.961 15.5405L15.0374 15.5405L20.5854 8.48866Z" fill="url(#paint3_linear_15_5)"/>
<path d="M6.45053 14.1511L11.1569 6.73438L10.9613 6.63332C10.8047 6.55246 10.475 6.98809 10.3298 7.21602L5.90924 14.1511H6.45053Z" fill="url(#paint4_linear_15_5)"/>
<path fill-rule="evenodd" clip-rule="evenodd" d="M12.623 7.26368L8.23226 14.1511H8.751L13.0143 7.46587L12.623 7.26368Z" fill="url(#paint5_linear_15_5)"/>
<path d="M11.6493 6.89779L7.03692 14.1511H7.5331L12.0404 7.1003L11.6493 6.89779Z" fill="url(#paint6_linear_15_5)"/>
<path d="M10.6283 8.6787C9.96921 8.03342 10.1064 7.01502 10.9088 6.59771L11.0707 6.51349C11.6505 6.21192 12.397 6.33053 12.8703 6.79942L15.4721 9.3768L13.6452 11.6321L10.6283 8.6787Z" fill="url(#paint7_linear_15_5)"/>
<path d="M27.2418 13.6691C26.4975 -5.00332 3.33491 -0.716171 4.32727 13.6691C3.90123 11.7104 3.30868 7.57778 4.2579 6.37348C1.31338 9.77069 0.286748 11.9443 0.0548973 13.026C0.0383861 13.2381 0.0265534 13.4525 0.0195308 13.6691C-0.0124301 13.5338 -0.00817971 13.3203 0.0548973 13.026C1.31103 -3.10613 29.6459 -5.76379 27.2418 13.6691Z" fill="url(#paint8_linear_15_5)"/>
<path d="M3.68254 9.97124C4.42682 28.6437 27.5894 24.3566 26.597 9.97124C27.0231 11.93 27.6156 16.0626 26.6664 17.2669C29.6109 13.8697 30.6376 11.6961 30.8694 10.6144C30.8859 10.4023 30.8977 10.1879 30.9048 9.97124C30.9367 10.1066 30.9325 10.3201 30.8694 10.6144C29.6133 26.7465 1.27836 29.4042 3.68254 9.97124Z" fill="url(#paint9_linear_15_5)"/>
<path d="M43.8598 13.08C45.4464 13.08 46.6864 13.58 47.5798 14.58C48.4731 15.5667 48.9198 16.94 48.9198 18.7C48.9198 19.82 48.7131 20.8067 48.2998 21.66C47.8998 22.5 47.3131 23.1533 46.5398 23.62C45.7798 24.0867 44.8798 24.32 43.8398 24.32C42.2531 24.32 41.0064 23.8267 40.0998 22.84C39.2064 21.84 38.7598 20.46 38.7598 18.7C38.7598 17.58 38.9598 16.6 39.3598 15.76C39.7731 14.9067 40.3598 14.2467 41.1198 13.78C41.8931 13.3133 42.8064 13.08 43.8598 13.08ZM43.8598 15.2C43.1398 15.2 42.5998 15.4867 42.2398 16.06C41.8931 16.62 41.7198 17.5 41.7198 18.7C41.7198 19.9 41.8931 20.7867 42.2398 21.36C42.5998 21.92 43.1331 22.2 43.8398 22.2C44.5464 22.2 45.0731 21.92 45.4198 21.36C45.7798 20.7867 45.9598 19.9 45.9598 18.7C45.9598 17.5 45.7864 16.62 45.4398 16.06C45.0931 15.4867 44.5664 15.2 43.8598 15.2Z" fill="#F3F3F3"/>
<path d="M56.7095 13.1C57.0295 13.1 57.3828 13.1533 57.7695 13.26L57.2895 16C56.9161 15.9067 56.6028 15.86 56.3495 15.86C55.7228 15.86 55.2361 16.08 54.8895 16.52C54.5428 16.96 54.2695 17.6267 54.0695 18.52V24H51.2295V13.4H53.6895L53.9495 15.46C54.2028 14.7133 54.5695 14.1333 55.0495 13.72C55.5428 13.3067 56.0961 13.1 56.7095 13.1Z" fill="#F3F3F3"/>
<path d="M63.8687 10.98C63.3887 10.98 63.042 11.0933 62.8287 11.32C62.6287 11.5467 62.5287 11.9133 62.5287 12.42V13.4H65.0487L64.7287 15.4H62.5287V24H59.6887V15.4H58.0087V13.4H59.6887V12.34C59.6887 11.3133 60.022 10.48 60.6887 9.84C61.3687 9.18667 62.3287 8.86 63.5687 8.86C64.5553 8.86 65.4887 9.07334 66.3687 9.5L65.5887 11.38C65.0153 11.1133 64.442 10.98 63.8687 10.98Z" fill="#F3F3F3"/>
<path d="M70.7551 13.08C72.3417 13.08 73.5817 13.58 74.4751 14.58C75.3684 15.5667 75.8151 16.94 75.8151 18.7C75.8151 19.82 75.6084 20.8067 75.1951 21.66C74.7951 22.5 74.2084 23.1533 73.4351 23.62C72.6751 24.0867 71.7751 24.32 70.7351 24.32C69.1484 24.32 67.9017 23.8267 66.9951 22.84C66.1017 21.84 65.6551 20.46 65.6551 18.7C65.6551 17.58 65.8551 16.6 66.2551 15.76C66.6684 14.9067 67.2551 14.2467 68.0151 13.78C68.7884 13.3133 69.7017 13.08 70.7551 13.08ZM70.7551 15.2C70.0351 15.2 69.4951 15.4867 69.1351 16.06C68.7884 16.62 68.6151 17.5 68.6151 18.7C68.6151 19.9 68.7884 20.7867 69.1351 21.36C69.4951 21.92 70.0284 22.2 70.7351 22.2C71.4417 22.2 71.9684 21.92 72.3151 21.36C72.6751 20.7867 72.8551 19.9 72.8551 18.7C72.8551 17.5 72.6817 16.62 72.3351 16.06C71.9884 15.4867 71.4617 15.2 70.7551 15.2Z" fill="#F3F3F3"/>
<path d="M80.7648 24.32C79.8981 24.32 79.2248 24.0733 78.7448 23.58C78.2648 23.0733 78.0248 22.36 78.0248 21.44V9.18L80.8648 8.86V21.36C80.8648 21.8267 81.0581 22.06 81.4448 22.06C81.6581 22.06 81.8448 22.02 82.0048 21.94L82.5848 23.96C82.0381 24.2 81.4314 24.32 80.7648 24.32Z" fill="#F3F3F3"/>
<path d="M87.0327 13.4V24H84.1927V13.4H87.0327ZM85.5927 7.94C86.0994 7.94 86.5127 8.1 86.8327 8.42C87.1661 8.72667 87.3327 9.12 87.3327 9.6C87.3327 10.08 87.1661 10.48 86.8327 10.8C86.5127 11.1067 86.0994 11.26 85.5927 11.26C85.0861 11.26 84.6727 11.1067 84.3527 10.8C84.0327 10.48 83.8727 10.08 83.8727 9.6C83.8727 9.12 84.0327 8.72667 84.3527 8.42C84.6727 8.1 85.0861 7.94 85.5927 7.94Z" fill="#F3F3F3"/>
<path d="M94.4473 13.08C96.0339 13.08 97.2739 13.58 98.1673 14.58C99.0606 15.5667 99.5073 16.94 99.5073 18.7C99.5073 19.82 99.3006 20.8067 98.8873 21.66C98.4873 22.5 97.9006 23.1533 97.1273 23.62C96.3673 24.0867 95.4673 24.32 94.4273 24.32C92.8406 24.32 91.5939 23.8267 90.6873 22.84C89.7939 21.84 89.3473 20.46 89.3473 18.7C89.3473 17.58 89.5473 16.6 89.9473 15.76C90.3606 14.9067 90.9473 14.2467 91.7073 13.78C92.4806 13.3133 93.3939 13.08 94.4473 13.08ZM94.4473 15.2C93.7273 15.2 93.1873 15.4867 92.8273 16.06C92.4806 16.62 92.3073 17.5 92.3073 18.7C92.3073 19.9 92.4806 20.7867 92.8273 21.36C93.1873 21.92 93.7206 22.2 94.4273 22.2C95.1339 22.2 95.6606 21.92 96.0073 21.36C96.3673 20.7867 96.5473 19.9 96.5473 18.7C96.5473 17.5 96.3739 16.62 96.0273 16.06C95.6806 15.4867 95.1539 15.2 94.4473 15.2Z" fill="#F3F3F3"/>
<path d="M32.4792 23.5102H32V24H32.4792V23.5102Z" fill="#F3F3F3"/>
<path fill-rule="evenodd" clip-rule="evenodd" d="M45.1834 1.1045C43.6458 0.368168 41.4746 0 38.6696 0H32V23.5102H32.4792V24H37.0606V9.48362H39.5227C42.0992 9.48362 44.1561 9.10231 45.6937 8.33967C47.2312 7.56389 48 6.41336 48 4.88809C48 3.84967 47.6056 2.99428 46.8168 2.32194C46.4309 1.84253 45.8864 1.43671 45.1834 1.1045ZM46.8168 2.32194C46.4969 2.04929 46.1121 1.80675 45.6625 1.5943C44.125 0.857964 41.9537 0.489796 39.1488 0.489796H32.4792V23.5102H36.5815V8.99383H39.0436C41.62 8.99383 43.677 8.61251 45.2145 7.84988C46.7521 7.07409 47.5208 5.92357 47.5208 4.3983C47.5208 3.59726 47.2861 2.90514 46.8168 2.32194ZM41.7239 6.29173C41.0175 6.67305 39.9994 6.86371 38.6696 6.86371H37.0606V2.58047H39.0864C40.6661 2.58047 41.7976 2.82809 42.4811 3.32332C42.6827 3.62593 42.7836 3.98426 42.7836 4.3983C42.7836 5.27927 42.4303 5.91042 41.7239 6.29173ZM42.4811 3.32332C43.0022 3.70095 43.2627 4.22254 43.2627 4.88809C43.2627 5.76907 42.9095 6.40021 42.2031 6.78153C41.4966 7.16285 40.4785 7.35351 39.1488 7.35351H37.0606V6.86371H36.5815V2.09067H38.6073C40.6421 2.09067 41.9334 2.50155 42.4811 3.32332Z" fill="#F3F3F3"/>
<path d="M36.5815 6.86371V7.34694L37.0606 7.35351V6.86371H36.5815Z" fill="#F3F3F3"/>
<path fill-rule="evenodd" clip-rule="evenodd" d="M45.2145 7.84988C46.7521 7.07409 47.5208 5.92357 47.5208 4.3983C47.5208 3.59726 47.2861 2.90514 46.8168 2.32194C46.4969 2.04929 46.1121 1.80675 45.6625 1.5943C44.125 0.857964 41.9537 0.489796 39.1488 0.489796H32.4792V23.5102H36.5815V8.99383H39.0436C41.62 8.99383 43.677 8.61251 45.2145 7.84988ZM36.5815 2.09067H38.6073C40.6421 2.09067 41.9334 2.50155 42.4811 3.32332C43.0022 3.70095 43.2627 4.22254 43.2627 4.88809C43.2627 5.76907 42.9095 6.40021 42.2031 6.78153C41.4966 7.16285 40.4785 7.35351 39.1488 7.35351H37.0606L36.5815 7.34694V6.86371V2.09067Z" fill="#F3F3F3"/>
<defs>
<linearGradient id="paint0_linear_15_5" x1="24.1627" y1="10.1412" x2="16.635" y2="14.3834" gradientUnits="userSpaceOnUse">
<stop offset="0.114583" stop-color="#22FF1F"/>
<stop offset="0.291667" stop-color="#22FF1F"/>
<stop offset="0.833333" stop-color="#06210A"/>
<stop offset="1" stop-color="#06210A"/>
</linearGradient>
<linearGradient id="paint1_linear_15_5" x1="24.1627" y1="10.1412" x2="16.635" y2="14.3834" gradientUnits="userSpaceOnUse">
<stop offset="0.114583" stop-color="#22FF1F"/>
<stop offset="0.291667" stop-color="#22FF1F"/>
<stop offset="0.833333" stop-color="#06210A"/>
<stop offset="1" stop-color="#06210A"/>
</linearGradient>
<linearGradient id="paint2_linear_15_5" x1="24.1627" y1="10.1412" x2="16.635" y2="14.3834" gradientUnits="userSpaceOnUse">
<stop offset="0.114583" stop-color="#22FF1F"/>
<stop offset="0.291667" stop-color="#22FF1F"/>
<stop offset="0.833333" stop-color="#06210A"/>
<stop offset="1" stop-color="#06210A"/>
</linearGradient>
<linearGradient id="paint3_linear_15_5" x1="20.9523" y1="5.6688" x2="14.109" y2="16.2818" gradientUnits="userSpaceOnUse">
<stop stop-color="#22FF1F"/>
<stop offset="0.291667" stop-color="#2BFF29"/>
<stop offset="0.546875" stop-color="#20F31D"/>
<stop offset="0.744792" stop-color="#31FF2E"/>
<stop offset="0.984375" stop-color="#22FF1F"/>
</linearGradient>
<linearGradient id="paint4_linear_15_5" x1="6.98508" y1="10.0558" x2="14.5165" y2="14.2957" gradientUnits="userSpaceOnUse">
<stop offset="0.114583" stop-color="#22FF1F"/>
<stop offset="0.291667" stop-color="#22FF1F"/>
<stop offset="0.833333" stop-color="#06210A"/>
<stop offset="1" stop-color="#06210A"/>
</linearGradient>
<linearGradient id="paint5_linear_15_5" x1="6.98508" y1="10.0558" x2="14.5165" y2="14.2957" gradientUnits="userSpaceOnUse">
<stop offset="0.114583" stop-color="#22FF1F"/>
<stop offset="0.291667" stop-color="#22FF1F"/>
<stop offset="0.833333" stop-color="#06210A"/>
<stop offset="1" stop-color="#06210A"/>
</linearGradient>
<linearGradient id="paint6_linear_15_5" x1="6.98508" y1="10.0558" x2="14.5165" y2="14.2957" gradientUnits="userSpaceOnUse">
<stop offset="0.114583" stop-color="#22FF1F"/>
<stop offset="0.291667" stop-color="#22FF1F"/>
<stop offset="0.833333" stop-color="#06210A"/>
<stop offset="1" stop-color="#06210A"/>
</linearGradient>
<linearGradient id="paint7_linear_15_5" x1="10.1694" y1="6.38121" x2="13.1407" y2="11.4901" gradientUnits="userSpaceOnUse">
<stop stop-color="#22FF1F"/>
<stop offset="0.291667" stop-color="#2BFF29"/>
<stop offset="0.546875" stop-color="#20F31D"/>
<stop offset="0.744792" stop-color="#31FF2E"/>
<stop offset="0.984375" stop-color="#22FF1F"/>
</linearGradient>
<linearGradient id="paint8_linear_15_5" x1="4.14684" y1="6.23266" x2="19.8923" y2="25.0486" gradientUnits="userSpaceOnUse">
<stop offset="0.114583" stop-color="#22FF1F"/>
<stop offset="0.291667" stop-color="#22FF1F"/>
<stop offset="0.833333" stop-color="white"/>
<stop offset="1" stop-color="white"/>
</linearGradient>
<linearGradient id="paint9_linear_15_5" x1="26.7775" y1="17.4077" x2="11.032" y2="-1.4082" gradientUnits="userSpaceOnUse">
<stop offset="0.114583" stop-color="#22FF1F"/>
<stop offset="0.291667" stop-color="#22FF1F"/>
<stop offset="0.833333" stop-color="white"/>
<stop offset="1" stop-color="white" stop-opacity="0"/>
</linearGradient>
</defs>
</svg>
